<svg width="121" height="42" viewBox="0 0 121 42" fill="none" xmlns="http://www.w3.org/2000/svg">
<path d="M88.5342 15.75C88.5342 12.6349 89.4579 9.58984 91.1885 6.99977C92.9192 4.40969 95.379 2.39098 98.2569 1.1989C101.135 0.00681713 104.302 -0.305085 107.357 0.302632C110.412 0.910349 113.218 2.41039 115.421 4.61307C117.624 6.81575 119.124 9.62213 119.732 12.6773C120.339 15.7325 120.027 18.8993 118.835 21.7773C117.643 24.6552 115.624 27.115 113.034 28.8456C110.444 30.5763 107.399 31.5 104.284 31.5V15.75H88.5342Z" fill="#5E1EE5"/>
<path d="M0.449418 30.4399V17.2434C0.449418 14.6774 1.73241 13.3944 4.2984 13.3944H7.7075C9.02715 13.3944 9.94357 13.7463 10.4568 14.4501C11.0433 13.7463 11.9597 13.3944 13.206 13.3944H16.6151C19.1811 13.3944 20.4641 14.6774 20.4641 17.2434V29.4501L18.3747 30.4399H18.2647V17.2434C18.2647 15.997 17.7149 15.3739 16.6151 15.3739H13.206C12.1063 15.3739 11.5565 15.997 11.5565 17.2434V29.4501L9.46703 30.4399H9.35706V17.2434C9.35706 15.997 8.80721 15.3739 7.7075 15.3739H4.2984C3.19869 15.3739 2.64884 15.997 2.64884 17.2434V29.4501L0.559389 30.4399H0.449418ZM29.414 28.0205H31.9433C32.6765 28.0205 33.043 27.5806 33.043 26.7009V21.2023C33.043 20.3226 32.6765 19.8827 31.9433 19.8827H29.414C28.6809 19.8827 28.3143 20.3226 28.3143 21.2023V26.7009C28.3143 27.5806 28.6809 28.0205 29.414 28.0205ZM29.414 30C27.2146 30 26.1149 28.9003 26.1149 26.7009V21.2023C26.1149 19.0029 27.2146 17.9032 29.414 17.9032H31.9433C34.1428 17.9032 35.2425 19.0029 35.2425 21.2023V26.7009C35.2425 28.9003 34.1428 30 31.9433 30H29.414ZM44.1923 28.0205H46.7217C47.4548 28.0205 47.8214 27.5806 47.8214 26.7009V21.2023C47.8214 20.3226 47.4548 19.8827 46.7217 19.8827H44.1923C43.4592 19.8827 43.0926 20.3226 43.0926 21.2023V26.7009C43.0926 27.5806 43.4592 28.0205 44.1923 28.0205ZM44.1923 30C41.9929 30 40.8932 28.9003 40.8932 26.7009V13.9442L42.9827 12.9545H43.0926V18.2441C43.3859 18.0168 43.7524 17.9032 44.1923 17.9032H46.7217C48.9211 17.9032 50.0208 19.0029 50.0208 21.2023V26.7009C50.0208 28.9003 48.9211 30 46.7217 30H44.1923ZM55.8365 15.4728C55.5799 15.2089 55.4516 14.8937 55.4516 14.5271C55.4516 14.1532 55.5799 13.8343 55.8365 13.5703C56.0931 13.3064 56.4047 13.1744 56.7712 13.1744C57.1378 13.1744 57.4494 13.3064 57.706 13.5703C57.9626 13.8343 58.0909 14.1532 58.0909 14.5271C58.0909 14.8937 57.9626 15.2089 57.706 15.4728C57.4494 15.7368 57.1378 15.8687 56.7712 15.8687C56.4047 15.8687 56.0931 15.7368 55.8365 15.4728ZM55.6715 30.4399V18.4531L57.761 17.4633H57.871V29.4501L55.7815 30.4399H55.6715ZM64.0716 30.4399V13.9442L66.161 12.9545H66.271V29.4501L64.1815 30.4399H64.0716ZM72.6365 15.4728C72.3799 15.2089 72.2516 14.8937 72.2516 14.5271C72.2516 14.1532 72.3799 13.8343 72.6365 13.5703C72.8931 13.3064 73.2047 13.1744 73.5713 13.1744C73.9379 13.1744 74.2494 13.3064 74.506 13.5703C74.7626 13.8343 74.8909 14.1532 74.8909 14.5271C74.8909 14.8937 74.7626 15.2089 74.506 15.4728C74.2494 15.7368 73.9379 15.8687 73.5713 15.8687C73.2047 15.8687 72.8931 15.7368 72.6365 15.4728ZM72.4716 30.4399V18.4531L74.561 17.4633H74.671V29.4501L72.5815 30.4399H72.4716ZM80.8716 30.4399V21.0044H79.222V20.8944L80.1128 19.0029H80.8716V16.6935C80.8716 14.4941 81.9713 13.3944 84.1707 13.3944H86.92V13.5044L86.0402 15.3739H84.1707C83.4376 15.3739 83.071 15.8138 83.071 16.6935V19.0029H86.7111V19.1129L85.8203 21.0044H83.071V29.4501L80.9816 30.4399H80.8716ZM94.7702 30C92.5707 30 91.471 28.9003 91.471 26.7009V18.4531L93.5605 17.4633H93.6705V26.7009C93.6705 27.5806 94.037 28.0205 94.7702 28.0205H97.2995C98.0326 28.0205 98.3992 27.5806 98.3992 26.7009V18.4531L100.489 17.4633H100.599V31.2097C100.599 33.4091 99.4989 34.5088 97.2995 34.5088H92.6147V34.3988L93.4945 32.5293H97.2995C98.0326 32.5293 98.3992 32.0894 98.3992 31.2097V29.6701C98.1133 29.89 97.7467 30 97.2995 30H94.7702Z" fill="black"/>
</svg>
