<svg width="209" height="35" viewBox="0 0 209 35" fill="none" xmlns="http://www.w3.org/2000/svg">
<path d="M176.534 15.75C176.534 12.6349 177.458 9.58984 179.189 6.99977C180.919 4.40969 183.379 2.39098 186.257 1.1989C189.135 0.00681713 192.302 -0.305085 195.357 0.302632C198.412 0.910349 201.218 2.41039 203.421 4.61307C205.624 6.81575 207.124 9.62213 207.732 12.6773C208.339 15.7325 208.027 18.8993 206.835 21.7773C205.643 24.6552 203.624 27.115 201.034 28.8456C198.444 30.5763 195.399 31.5 192.284 31.5V15.75H176.534Z" fill="#5E1EE5"/>
<path d="M2.19942 29.4399V16.2434C2.19942 13.6774 3.48241 12.3944 6.0484 12.3944H9.4575C12.0235 12.3944 13.3065 13.6774 13.3065 16.2434V28.4501L11.217 29.4399H11.1071V21.6979H4.39884V28.4501L2.30939 29.4399H2.19942ZM4.39884 19.6965H11.1071V16.2434C11.1071 14.997 10.5572 14.3739 9.4575 14.3739H6.0484C4.94869 14.3739 4.39884 14.997 4.39884 16.2434V19.6965ZM22.2564 29C20.0569 29 18.9572 27.9003 18.9572 25.7009V20.2023C18.9572 18.0029 20.0569 16.9032 22.2564 16.9032H24.7857C25.2842 16.9032 25.6508 17.0168 25.8854 17.2441V12.9442L27.9748 11.9545H28.0848V25.7009C28.0848 27.9003 26.9851 29 24.7857 29H22.2564ZM22.2564 27.0205H24.7857C25.5188 27.0205 25.8854 26.5806 25.8854 25.7009V20.2023C25.8854 19.3226 25.5188 18.8827 24.7857 18.8827H22.2564C21.5232 18.8827 21.1566 19.3226 21.1566 20.2023V25.7009C21.1566 26.5806 21.5232 27.0205 22.2564 27.0205ZM33.7356 29.4399V20.2023C33.7356 18.0029 34.8353 16.9032 37.0347 16.9032H39.564C40.5758 16.9032 41.3089 17.1745 41.7634 17.717C42.2473 17.1745 42.9805 16.9032 43.9629 16.9032H46.4922C48.6916 16.9032 49.7913 18.0029 49.7913 20.2023V28.4501L47.7019 29.4399H47.5919V20.2023C47.5919 19.3226 47.2253 18.8827 46.4922 18.8827H43.9629C43.2297 18.8827 42.8631 19.3226 42.8631 20.2023V28.4501L40.7737 29.4399H40.6637V20.2023C40.6637 19.3226 40.2972 18.8827 39.564 18.8827H37.0347C36.3016 18.8827 35.935 19.3226 35.935 20.2023V28.4501L33.8455 29.4399H33.7356ZM55.607 14.4728C55.3504 14.2089 55.2221 13.8937 55.2221 13.5271C55.2221 13.1532 55.3504 12.8343 55.607 12.5703C55.8636 12.3064 56.1752 12.1744 56.5418 12.1744C56.9083 12.1744 57.2199 12.3064 57.4765 12.5703C57.7331 12.8343 57.8614 13.1532 57.8614 13.5271C57.8614 13.8937 57.7331 14.2089 57.4765 14.4728C57.2199 14.7368 56.9083 14.8687 56.5418 14.8687C56.1752 14.8687 55.8636 14.7368 55.607 14.4728ZM55.4421 29.4399V17.4531L57.5315 16.4633H57.6415V28.4501L55.552 29.4399H55.4421ZM63.2922 29.4399V20.2023C63.2922 18.0029 64.3919 16.9032 66.5914 16.9032H69.1207C71.3201 16.9032 72.4198 18.0029 72.4198 20.2023V28.4501L70.3304 29.4399H70.2204V20.2023C70.2204 19.3226 69.8538 18.8827 69.1207 18.8827H66.5914C65.8582 18.8827 65.4916 19.3226 65.4916 20.2023V28.4501L63.4022 29.4399H63.2922ZM88.67 29.4399V16.2434C88.67 13.6774 89.953 12.3944 92.519 12.3944H95.9281C97.2477 12.3944 98.1642 12.7463 98.6774 13.4501C99.2639 12.7463 100.18 12.3944 101.427 12.3944H104.836C107.402 12.3944 108.685 13.6774 108.685 16.2434V28.4501L106.595 29.4399H106.485V16.2434C106.485 14.997 105.935 14.3739 104.836 14.3739H101.427C100.327 14.3739 99.7771 14.997 99.7771 16.2434V28.4501L97.6876 29.4399H97.5776V16.2434C97.5776 14.997 97.0278 14.3739 95.9281 14.3739H92.519C91.4193 14.3739 90.8694 14.997 90.8694 16.2434V28.4501L88.78 29.4399H88.67ZM117.635 27.0205H120.164C120.897 27.0205 121.264 26.5806 121.264 25.7009V20.2023C121.264 19.3226 120.897 18.8827 120.164 18.8827H117.635C116.901 18.8827 116.535 19.3226 116.535 20.2023V25.7009C116.535 26.5806 116.901 27.0205 117.635 27.0205ZM117.635 29C115.435 29 114.335 27.9003 114.335 25.7009V20.2023C114.335 18.0029 115.435 16.9032 117.635 16.9032H120.164C122.363 16.9032 123.463 18.0029 123.463 20.2023V25.7009C123.463 27.9003 122.363 29 120.164 29H117.635ZM132.413 27.0205H134.942C135.675 27.0205 136.042 26.5806 136.042 25.7009V20.2023C136.042 19.3226 135.675 18.8827 134.942 18.8827H132.413C131.68 18.8827 131.313 19.3226 131.313 20.2023V25.7009C131.313 26.5806 131.68 27.0205 132.413 27.0205ZM132.413 29C130.213 29 129.114 27.9003 129.114 25.7009V12.9442L131.203 11.9545H131.313V17.2441C131.606 17.0168 131.973 16.9032 132.413 16.9032H134.942C137.142 16.9032 138.241 18.0029 138.241 20.2023V25.7009C138.241 27.9003 137.142 29 134.942 29H132.413ZM144.057 14.4728C143.8 14.2089 143.672 13.8937 143.672 13.5271C143.672 13.1532 143.8 12.8343 144.057 12.5703C144.314 12.3064 144.625 12.1744 144.992 12.1744C145.358 12.1744 145.67 12.3064 145.927 12.5703C146.183 12.8343 146.311 13.1532 146.311 13.5271C146.311 13.8937 146.183 14.2089 145.927 14.4728C145.67 14.7368 145.358 14.8687 144.992 14.8687C144.625 14.8687 144.314 14.7368 144.057 14.4728ZM143.892 29.4399V17.4531L145.982 16.4633H146.092V28.4501L144.002 29.4399H143.892ZM152.292 29.4399V12.9442L154.382 11.9545H154.492V28.4501L152.402 29.4399H152.292ZM160.857 14.4728C160.601 14.2089 160.472 13.8937 160.472 13.5271C160.472 13.1532 160.601 12.8343 160.857 12.5703C161.114 12.3064 161.425 12.1744 161.792 12.1744C162.158 12.1744 162.47 12.3064 162.727 12.5703C162.983 12.8343 163.112 13.1532 163.112 13.5271C163.112 13.8937 162.983 14.2089 162.727 14.4728C162.47 14.7368 162.158 14.8687 161.792 14.8687C161.425 14.8687 161.114 14.7368 160.857 14.4728ZM160.692 29.4399V17.4531L162.782 16.4633H162.892V28.4501L160.802 29.4399H160.692ZM169.092 29.4399V20.0044H167.443V19.8944L168.333 18.0029H169.092V15.6935C169.092 13.4941 170.192 12.3944 172.391 12.3944H175.141V12.5044L174.261 14.3739H172.391C171.658 14.3739 171.292 14.8138 171.292 15.6935V18.0029H174.932V18.1129L174.041 20.0044H171.292V28.4501L169.202 29.4399H169.092ZM182.991 29C180.791 29 179.692 27.9003 179.692 25.7009V17.4531L181.781 16.4633H181.891V25.7009C181.891 26.5806 182.258 27.0205 182.991 27.0205H185.52C186.253 27.0205 186.62 26.5806 186.62 25.7009V17.4531L188.709 16.4633H188.819V30.2097C188.819 32.4091 187.719 33.5088 185.52 33.5088H180.835V33.3988L181.715 31.5293H185.52C186.253 31.5293 186.62 31.0894 186.62 30.2097V28.6701C186.334 28.89 185.967 29 185.52 29H182.991Z" fill="black"/>
</svg>
